<svg width="6" height="10" viewBox="0 0 6 10" fill="none" xmlns="http://www.w3.org/2000/svg">
<path d="M0.473566 0.526464C0.41108 0.58844 0.361484 0.662173 0.327638 0.743412C0.293792 0.824652 0.276367 0.911789 0.276367 0.999797C0.276367 1.0878 0.293792 1.17494 0.327638 1.25618C0.361484 1.33742 0.41108 1.41115 0.473566 1.47313L3.5269 4.52646C3.58938 4.58844 3.63898 4.66217 3.67283 4.74341C3.70667 4.82465 3.7241 4.91179 3.7241 4.9998C3.7241 5.0878 3.70667 5.17494 3.67283 5.25618C3.63898 5.33742 3.58938 5.41116 3.5269 5.47313L0.473566 8.52646C0.41108 8.58844 0.361484 8.66217 0.327638 8.74341C0.293792 8.82465 0.276367 8.91179 0.276367 8.9998C0.276367 9.08781 0.293793 9.17494 0.327638 9.25618C0.361484 9.33742 0.41108 9.41116 0.473566 9.47313C0.598474 9.5973 0.767442 9.66699 0.943566 9.66699C1.11969 9.66699 1.28866 9.5973 1.41357 9.47313L4.47357 6.41313C4.8481 6.03813 5.05847 5.5298 5.05847 4.9998C5.05847 4.4698 4.8481 3.96146 4.47357 3.58646L1.41357 0.526464C1.28866 0.402297 1.11969 0.332602 0.943566 0.332602C0.767442 0.332602 0.598474 0.402297 0.473566 0.526464Z" fill="#0336FF"/>
</svg>
