<svg width="6" height="10" viewBox="0 0 6 10" fill="none" xmlns="http://www.w3.org/2000/svg">
<path d="M5.52643 9.47354C5.58892 9.41156 5.63852 9.33783 5.67236 9.25659C5.70621 9.17535 5.72363 9.08821 5.72363 9.0002C5.72363 8.9122 5.70621 8.82506 5.67236 8.74382C5.63852 8.66258 5.58892 8.58885 5.52643 8.52687L2.4731 5.47354C2.41061 5.41156 2.36102 5.33783 2.32717 5.25659C2.29333 5.17535 2.2759 5.08821 2.2759 5.0002C2.2759 4.9122 2.29333 4.82506 2.32717 4.74382C2.36102 4.66258 2.41061 4.58884 2.4731 4.52687L5.52643 1.47354C5.58892 1.41156 5.63852 1.33783 5.67236 1.25659C5.70621 1.17535 5.72363 1.08821 5.72363 1.0002C5.72363 0.912195 5.70621 0.825058 5.67236 0.743818C5.63852 0.662579 5.58892 0.588845 5.52643 0.526869C5.40153 0.402702 5.23256 0.333008 5.05643 0.333008C4.88031 0.333008 4.71134 0.402702 4.58643 0.526869L1.52643 3.58687C1.1519 3.96187 0.941527 4.4702 0.941527 5.0002C0.941527 5.5302 1.1519 6.03853 1.52643 6.41354L4.58643 9.47354C4.71134 9.5977 4.88031 9.6674 5.05643 9.6674C5.23256 9.6674 5.40153 9.5977 5.52643 9.47354Z" fill="#0336FF"/>
</svg>
