<svg width="17" height="17" viewBox="0 0 17 17" fill="none" xmlns="http://www.w3.org/2000/svg">
<g clip-path="url(#clip0_949_3999)">
<path d="M13.8024 16.1429C13.5646 16.1423 13.3293 16.0945 13.11 16.0024C12.8908 15.9102 12.692 15.7756 12.5251 15.6061L8.57151 11.6757L4.61794 15.6087C4.36403 15.8663 4.03839 16.0415 3.68349 16.1113C3.32859 16.1811 2.96088 16.1424 2.62829 16.0002C2.29241 15.8651 2.00507 15.6319 1.8038 15.3309C1.60253 15.03 1.49668 14.6754 1.50008 14.3134V3.92864C1.50008 3.07616 1.83873 2.25859 2.44152 1.6558C3.04432 1.053 3.86188 0.714355 4.71436 0.714355L12.4287 0.714355C12.8508 0.714355 13.2687 0.797495 13.6587 0.959028C14.0487 1.12056 14.403 1.35732 14.7015 1.6558C15 1.95427 15.2367 2.30861 15.3983 2.69859C15.5598 3.08856 15.6429 3.50654 15.6429 3.92864V14.3134C15.6465 14.6751 15.5411 15.0295 15.3403 15.3304C15.1395 15.6313 14.8527 15.8647 14.5173 16.0002C14.2909 16.0949 14.0478 16.1434 13.8024 16.1429ZM4.71436 2.00007C4.20288 2.00007 3.71234 2.20326 3.35066 2.56494C2.98898 2.92661 2.78579 3.41715 2.78579 3.92864V14.3134C2.78556 14.4205 2.81708 14.5253 2.87637 14.6145C2.93566 14.7037 3.02006 14.7733 3.11892 14.8146C3.21777 14.8559 3.32663 14.8669 3.43176 14.8464C3.53689 14.8258 3.63357 14.7746 3.70958 14.6991L8.12151 10.3141C8.24195 10.1944 8.40489 10.1272 8.57472 10.1272C8.74456 10.1272 8.90749 10.1944 9.02794 10.3141L13.4347 14.6978C13.5107 14.7733 13.6074 14.8245 13.7125 14.8451C13.8177 14.8657 13.9265 14.8546 14.0254 14.8133C14.1242 14.7721 14.2086 14.7024 14.2679 14.6132C14.3272 14.524 14.3587 14.4192 14.3585 14.3121V3.92864C14.3585 3.41715 14.1553 2.92661 13.7936 2.56494C13.432 2.20326 12.9414 2.00007 12.4299 2.00007H4.71436Z" fill="#0336FF"/>
<path d="M2 13V5.5L3 2L6 1.5H13L15 2.5V9.5L14.5 14V15H13L8.5 11L3.5 15.5L2.5 15L2 13Z" fill="#0336FF"/>
</g>
<defs>
<clipPath id="clip0_949_3999">
<rect width="15.4286" height="15.4286" fill="white" transform="translate(0.857422 0.714355)"/>
</clipPath>
</defs>
</svg>
