<svg width="15" height="17" viewBox="0 0 15 17" fill="none" xmlns="http://www.w3.org/2000/svg">
<path d="M12.8024 16.1434C12.5646 16.1428 12.3293 16.095 12.11 16.0029C11.8908 15.9107 11.692 15.7761 11.5251 15.6066L7.57151 11.6762L3.61794 15.6092C3.36403 15.8668 3.03839 16.042 2.68349 16.1118C2.32859 16.1816 1.96088 16.1429 1.62829 16.0007C1.29241 15.8656 1.00507 15.6324 0.803802 15.3314C0.602532 15.0305 0.496683 14.6759 0.500079 14.3138V3.92913C0.500079 3.07665 0.838726 2.25908 1.44152 1.65629C2.04432 1.05349 2.86188 0.714844 3.71436 0.714844L11.4287 0.714844C11.8508 0.714844 12.2687 0.797984 12.6587 0.959517C13.0487 1.12105 13.403 1.35781 13.7015 1.65629C14 1.95476 14.2367 2.3091 14.3983 2.69908C14.5598 3.08905 14.6429 3.50702 14.6429 3.92913V14.3138C14.6465 14.6756 14.5411 15.03 14.3403 15.3309C14.1395 15.6318 13.8527 15.8652 13.5173 16.0007C13.2909 16.0954 13.0478 16.1439 12.8024 16.1434ZM3.71436 2.00056C3.20288 2.00056 2.71234 2.20375 2.35066 2.56542C1.98898 2.9271 1.78579 3.41764 1.78579 3.92913V14.3138C1.78556 14.421 1.81708 14.5258 1.87637 14.615C1.93566 14.7042 2.02006 14.7738 2.11892 14.8151C2.21777 14.8564 2.32663 14.8674 2.43176 14.8469C2.53689 14.8263 2.63357 14.775 2.70958 14.6996L7.12151 10.3146C7.24195 10.1949 7.40489 10.1277 7.57472 10.1277C7.74456 10.1277 7.90749 10.1949 8.02794 10.3146L12.4347 14.6983C12.5107 14.7738 12.6074 14.825 12.7125 14.8456C12.8177 14.8661 12.9265 14.8551 13.0254 14.8138C13.1242 14.7725 13.2086 14.7029 13.2679 14.6137C13.3272 14.5245 13.3587 14.4197 13.3585 14.3126V3.92913C13.3585 3.41764 13.1553 2.9271 12.7936 2.56542C12.432 2.20375 11.9414 2.00056 11.4299 2.00056H3.71436Z" fill="#0336FF"/>
</svg>
