<svg width="40" height="28" viewBox="0 0 40 28" fill="none" xmlns="http://www.w3.org/2000/svg">
<path d="M10.2981 3.28757L9.60352 1.43555C9.60352 1.43555 0 2.62853 0 13.9481C0 25.2677 9.56239 26.6148 9.56239 26.6148L10.2981 24.7628C10.2981 24.7628 5.43461 23.4661 5.43461 13.9481C5.43461 4.43021 10.2981 3.28757 10.2981 3.28757Z" fill="#005BE2"/>
<path d="M15.5779 1.95423L14.8564 0C14.8564 0 7.98047 3.58963 7.98047 14.0244C7.98047 24.4592 14.8311 27.9512 14.8311 27.9512L15.5779 26.0839C15.5779 26.0839 11.0656 23.3349 11.0656 14.0244C11.0656 4.71396 15.5779 1.95423 15.5779 1.95423Z" fill="#005BE2"/>
<path d="M29.0527 24.714L29.7473 26.566C29.7473 26.566 39.3508 25.3715 39.3508 14.0534C39.3508 2.73531 29.7884 1.38672 29.7884 1.38672L29.0527 3.23874C29.0527 3.23874 33.9162 4.53546 33.9162 14.0534C33.9162 23.5713 29.0527 24.714 29.0527 24.714Z" fill="#005BE2"/>
<path d="M23.7734 26.0458L24.4949 28C24.4949 28 31.3708 24.4104 31.3708 13.9756C31.3708 3.54082 24.5202 0.0488281 24.5202 0.0488281L23.7734 1.91611C23.7734 1.91611 28.2857 4.66515 28.2857 13.9756C28.2857 23.2861 23.7734 26.0458 23.7734 26.0458Z" fill="#005BE2"/>
</svg>
