<svg width="32" height="30" viewBox="0 0 32 30" fill="none" xmlns="http://www.w3.org/2000/svg">
<path d="M25.3333 3.00005H16.6293C16.424 3.00005 16.216 2.95205 16.0333 2.86005L11.8293 0.758717C11.276 0.481384 10.6573 0.334717 10.0373 0.334717H6.66667C2.99067 0.333384 0 3.32405 0 7.00005V23.0001C0 26.6761 2.99067 29.6667 6.66667 29.6667H10.6667C11.4027 29.6667 12 29.0707 12 28.3334C12 27.5961 11.4027 27.0001 10.6667 27.0001H6.66667C4.46133 27.0001 2.66667 25.2054 2.66667 23.0001V11.0001H29.3333V23.0001C29.3333 25.2054 27.5387 27.0001 25.3333 27.0001H21.3333C20.5973 27.0001 20 27.5961 20 28.3334C20 29.0707 20.5973 29.6667 21.3333 29.6667H25.3333C29.0093 29.6667 32 26.6761 32 23.0001V9.66672C32 5.99072 29.0093 3.00005 25.3333 3.00005ZM2.66667 7.00005C2.66667 4.79472 4.46133 3.00005 6.66667 3.00005H10.0373C10.2427 3.00005 10.448 3.04805 10.6333 3.14138L14.8413 5.24405C15.3947 5.52005 16.012 5.66538 16.6293 5.66538H25.3333C27.0693 5.66538 28.536 6.78405 29.088 8.33205H2.66667V7.00005ZM19.0573 20.1947L17.3333 18.4707V28.3334C17.3333 29.0707 16.736 29.6667 16 29.6667C15.264 29.6667 14.6667 29.0707 14.6667 28.3334V18.4707L12.9427 20.1947C12.6827 20.4547 12.3413 20.5854 12 20.5854C11.6587 20.5854 11.3173 20.4547 11.0573 20.1947C10.536 19.6734 10.536 18.8307 11.0573 18.3094L13.208 16.1587C14.6987 14.6667 17.3 14.6667 18.792 16.1587L20.9427 18.3094C21.464 18.8307 21.464 19.6734 20.9427 20.1947C20.4213 20.7161 19.5787 20.7161 19.0573 20.1947Z" fill="#281542"/>
</svg>
