<svg width="18" height="18" viewBox="0 0 18 18" fill="none" xmlns="http://www.w3.org/2000/svg">
<path d="M18 7.5L16.35 0H1.65L0.018 7.33725L0 8.25C0.00272002 8.97396 0.269381 9.67208 0.75 10.2135V15.75C0.75 16.3467 0.987053 16.919 1.40901 17.341C1.83097 17.7629 2.40326 18 3 18H15C15.5967 18 16.169 17.7629 16.591 17.341C17.0129 16.919 17.25 16.3467 17.25 15.75V10.2135C17.7306 9.67208 17.9973 8.97396 18 8.25V7.5ZM1.5 7.58175L2.85 1.5H5.25V4.5H6.75V1.5H11.25V4.5H12.75V1.5H15.15L16.5 7.58175V8.25C16.5 8.64782 16.342 9.02936 16.0607 9.31066C15.7794 9.59196 15.3978 9.75 15 9.75H14.25C13.8522 9.75 13.4706 9.59196 13.1893 9.31066C12.908 9.02936 12.75 8.64782 12.75 8.25H11.25C11.25 8.64782 11.092 9.02936 10.8107 9.31066C10.5294 9.59196 10.1478 9.75 9.75 9.75H8.25C7.85218 9.75 7.47064 9.59196 7.18934 9.31066C6.90804 9.02936 6.75 8.64782 6.75 8.25H5.25C5.25 8.64782 5.09196 9.02936 4.81066 9.31066C4.52936 9.59196 4.14782 9.75 3.75 9.75H3C2.60218 9.75 2.22064 9.59196 1.93934 9.31066C1.65804 9.02936 1.5 8.64782 1.5 8.25V7.58175ZM15 16.5H3C2.80109 16.5 2.61032 16.421 2.46967 16.2803C2.32902 16.1397 2.25 15.9489 2.25 15.75V11.1435C2.49439 11.211 2.74647 11.2468 3 11.25H3.75C4.17742 11.2486 4.59955 11.1554 4.98776 10.9765C5.37597 10.7977 5.72118 10.5375 6 10.2135C6.27882 10.5375 6.62403 10.7977 7.01224 10.9765C7.40045 11.1554 7.82258 11.2486 8.25 11.25H9.75C10.1759 11.2502 10.5969 11.1596 10.9849 10.984C11.3729 10.8085 11.719 10.5522 12 10.2323C12.281 10.5522 12.6271 10.8085 13.0151 10.984C13.4031 11.1596 13.8241 11.2502 14.25 11.25H15C15.2535 11.2468 15.5056 11.211 15.75 11.1435V15.75C15.75 15.9489 15.671 16.1397 15.5303 16.2803C15.3897 16.421 15.1989 16.5 15 16.5Z" fill="#190B28"/>
</svg>
